<svg width="100" xmlns="http://www.w3.org/2000/svg" version="1.1" xml:space="preserve" viewBox="0 0 81.919 92.91" id="svg2">
  <linearGradient id="MyGradient" x1="50%" y1="0%" x2="50%" y2="100%" gradientTransform="rotate(145)"> 
    <stop offset="0%" stop-color="#0db47e" >
      <animate attributeName="stop-color" values="#0db47e; #0e2941; #0db47e;" dur="10s" repeatCount="indefinite"></animate>
    </stop>
  </linearGradient> 
  <g transform="matrix(1.25 0 0 -1.25 -265.09 179.61)" id="g6">
    <g transform="scale(.24)" id="g8">
      <path id="path14" d="M1047.7 370.8v-9.7h4.3v9.7h3.5v3.9h-11.3v-3.9h3.5zm20.2-1.9v-7.8h4.1v13.7h-5l-2.6-7-2.5 7h-5.1v-13.7h4.1v7.8l2.2-6h2.8l2.2 6.1m-134.867 56.6h17.1c5.8 0 10.2-1.5 13.4-4.4 3.2-2.9 4.8-7 4.8-12.1v-16.5c0-5.2-1.6-9.3-4.8-12.2-3.2-2.9-7.6-4.4-13.4-4.4h-17.1v49.6zm17.8 37.8h-67.4V289h49.6v50.8h14l22.4-50.8h53.2l-30.1 60c7.8 4.2 14 10.1 18.5 17.6 4.5 7.5 6.8 16.8 6.8 27.8v12.8c0 9.2-1.5 17.3-4.6 24.3-3 7-7.4 12.9-13.2 17.6-5.8 4.7-12.8 8.3-21.1 10.8-8.3 2.4-17.7 3.7-28.1 3.7m171.067-72.9h-.7c-17.1 0-31.7 12.9-34 30-7.3 53.5-47.9 96.3-101 106.3-3.5.7-6-.9-7.2-1.9-1.2-1-3.2-3.2-3.2-6.8 0-4.2 2.9-7.8 6.8-8.6 51-9.5 88.1-54.1 88.1-106.1 0-7.2-5.8-13-13-13s-13 5.8-13 13c0 39.5-28.1 73.3-66.8 80.5-16.3 3-28.1 17.4-28.1 34.1 0 10.4 4.6 20.2 12.6 26.8 8 6.6 18.4 9.3 28.6 7.4 64.1-12.1 113.1-63.7 121.9-128.3.6-4.4 4.1-7.5 8.3-7.5h.7c2.5 0 4.9 1.1 6.6 3 .9 1.1 2.4 3.3 2 6.4-11.1 83.6-83.2 146.7-167.7 146.7-7.2 0-13 5.8-13 13s5.8 13 13 13c97.4 0 180.6-72.8 193.4-169.3 1.3-9.7-1.7-19.6-8.2-27-6.6-7.5-16.1-11.8-26.1-11.8" fill="url(#MyGradient)" />
    </g>
  </g>
</svg>